<svg width="32" height="32" viewBox="0 0 32 32" fill="none" xmlns="http://www.w3.org/2000/svg">
<path d="M8 0.5H24C28.1421 0.5 31.5 3.85786 31.5 8V24C31.5 28.1421 28.1421 31.5 24 31.5H8C3.85786 31.5 0.5 28.1421 0.5 24V8C0.5 3.85786 3.85786 0.5 8 0.5Z" stroke="#E5E7EB"/>
<g clip-path="url(#clip0_103_3045)">
<g clip-path="url(#clip1_103_3045)">
<path d="M11.8821 15.3821C11.5403 15.7239 11.5403 16.279 11.8821 16.6208L17.1321 21.8708C17.4739 22.2126 18.029 22.2126 18.3708 21.8708C18.7125 21.529 18.7125 20.9739 18.3708 20.6321L13.7387 16.0001L18.368 11.3681C18.7098 11.0263 18.7098 10.4712 18.368 10.1294C18.0262 9.7876 17.4711 9.7876 17.1293 10.1294L11.8793 15.3794L11.8821 15.3821Z" fill="#1F2937"/>
</g>
</g>
<defs>
<clipPath id="clip0_103_3045">
<rect width="8.75" height="14" fill="white" transform="translate(11.625 9)"/>
</clipPath>
<clipPath id="clip1_103_3045">
<path d="M11.625 9H20.375V23H11.625V9Z" fill="white"/>
</clipPath>
</defs>
</svg>
