<svg width="32" height="32" viewBox="0 0 32 32" fill="none" xmlns="http://www.w3.org/2000/svg">
<path d="M8 0.5H24C28.1421 0.5 31.5 3.85786 31.5 8V24C31.5 28.1421 28.1421 31.5 24 31.5H8C3.85786 31.5 0.5 28.1421 0.5 24V8C0.5 3.85786 3.85786 0.5 8 0.5Z" stroke="#E5E7EB"/>
<g clip-path="url(#clip0_103_3049)">
<g clip-path="url(#clip1_103_3049)">
<path d="M20.1181 15.3821C20.4599 15.7239 20.4599 16.279 20.1181 16.6208L14.8681 21.8708C14.5263 22.2126 13.9712 22.2126 13.6294 21.8708C13.2876 21.529 13.2876 20.9739 13.6294 20.6321L18.2614 16.0001L13.6321 11.3681C13.2903 11.0263 13.2903 10.4712 13.6321 10.1294C13.9739 9.7876 14.529 9.7876 14.8708 10.1294L20.1208 15.3794L20.1181 15.3821Z" fill="#1F2937"/>
</g>
</g>
<defs>
<clipPath id="clip0_103_3049">
<rect width="8.75" height="14" fill="white" transform="translate(11.625 9)"/>
</clipPath>
<clipPath id="clip1_103_3049">
<path d="M11.625 9H20.375V23H11.625V9Z" fill="white"/>
</clipPath>
</defs>
</svg>
