<svg width="24" height="24" viewBox="0 0 24 24" fill="none" xmlns="http://www.w3.org/2000/svg">
<path d="M16.9451 0.056246C17.1795 0.154684 17.3482 0.365621 17.3951 0.614059L18.3279 5.67187L23.3857 6.6C23.6342 6.64687 23.8451 6.81562 23.9435 7.05C24.042 7.28437 24.0138 7.55156 23.8685 7.7625L20.9482 12L23.8685 16.2328C24.0138 16.4437 24.042 16.7109 23.9435 16.9453C23.8451 17.1797 23.6342 17.3484 23.3857 17.3953L18.3279 18.3281L17.3951 23.3859C17.3482 23.6344 17.1795 23.8453 16.9451 23.9437C16.7107 24.0422 16.4435 24.0141 16.2326 23.8687L11.9998 20.9484L7.76697 23.8687C7.55603 24.0141 7.28884 24.0422 7.05447 23.9437C6.82009 23.8453 6.65134 23.6344 6.60447 23.3859L5.67166 18.3281L0.613845 17.3953C0.365407 17.3484 0.15447 17.1797 0.0560324 16.9453C-0.0424051 16.7109 -0.0142801 16.4437 0.131032 16.2328L3.05134 12L0.131032 7.76718C-0.0142801 7.55625 -0.0424051 7.28906 0.0560324 7.05468C0.15447 6.82031 0.365407 6.65156 0.613845 6.60468L5.67166 5.67187L6.60447 0.614059C6.65134 0.365621 6.82009 0.154684 7.05447 0.056246C7.28884 -0.0421915 7.55603 -0.0140665 7.76697 0.131246L11.9998 3.05156L16.2326 0.131246C16.4435 -0.0140665 16.7107 -0.0421915 16.9451 0.056246ZM7.49978 12C7.49978 10.8065 7.97389 9.66193 8.8178 8.81802C9.66172 7.9741 10.8063 7.5 11.9998 7.5C13.1933 7.5 14.3378 7.9741 15.1818 8.81802C16.0257 9.66193 16.4998 10.8065 16.4998 12C16.4998 13.1935 16.0257 14.3381 15.1818 15.182C14.3378 16.0259 13.1933 16.5 11.9998 16.5C10.8063 16.5 9.66172 16.0259 8.8178 15.182C7.97389 14.3381 7.49978 13.1935 7.49978 12ZM17.9998 12C17.9998 10.4087 17.3676 8.88257 16.2424 7.75735C15.1172 6.63214 13.5911 6 11.9998 6C10.4085 6 8.88236 6.63214 7.75714 7.75735C6.63192 8.88257 5.99978 10.4087 5.99978 12C5.99978 13.5913 6.63192 15.1174 7.75714 16.2426C8.88236 17.3679 10.4085 18 11.9998 18C13.5911 18 15.1172 17.3679 16.2424 16.2426C17.3676 15.1174 17.9998 13.5913 17.9998 12Z" fill="#1F2937"/>
</svg>
