<svg width="25" height="24" viewBox="0 0 25 24" fill="none" xmlns="http://www.w3.org/2000/svg">
<path d="M21.875 10.5H15.125C14.5016 10.5 14 9.99844 14 9.375V2.625C14 2.17031 14.2719 1.75781 14.6937 1.58437C15.1156 1.41094 15.5984 1.50469 15.9219 1.82812L17.7969 3.70312L21.2328 0.267187C21.4062 0.09375 21.6359 0 21.875 0C22.1141 0 22.3438 0.09375 22.5172 0.267187L24.2375 1.9875C24.4062 2.15625 24.5 2.38594 24.5 2.625C24.5 2.86406 24.4062 3.09375 24.2328 3.26719L20.7969 6.70312L22.6719 8.57812C22.9953 8.90156 23.0891 9.38437 22.9156 9.80625C22.7422 10.2281 22.3297 10.5 21.875 10.5ZM21.875 13.5C22.3297 13.5 22.7422 13.7719 22.9156 14.1937C23.0891 14.6156 22.9953 15.0984 22.6719 15.4219L20.7969 17.2969L24.2375 20.7375C24.4062 20.9062 24.5047 21.1359 24.5047 21.3797C24.5047 21.6234 24.4109 21.8484 24.2375 22.0219L22.5172 23.7422C22.3438 23.9062 22.1141 24 21.875 24C21.6359 24 21.4062 23.9062 21.2328 23.7328L17.7969 20.2969L15.9219 22.1719C15.5984 22.4953 15.1156 22.5891 14.6937 22.4156C14.2719 22.2422 14 21.8297 14 21.375V14.625C14 14.0016 14.5016 13.5 15.125 13.5H21.875ZM9.875 13.5C10.4984 13.5 11 14.0016 11 14.625V21.375C11 21.8297 10.7281 22.2422 10.3062 22.4156C9.88437 22.5891 9.40156 22.4953 9.07812 22.1719L7.20312 20.2969L3.76719 23.7328C3.59375 23.9062 3.36406 24 3.125 24C2.88594 24 2.65625 23.9062 2.48281 23.7328L0.767187 22.0172C0.59375 21.8438 0.5 21.6141 0.5 21.375C0.5 21.1359 0.59375 20.9062 0.767187 20.7328L4.20312 17.2969L2.32812 15.4219C2.00469 15.0984 1.91094 14.6156 2.08437 14.1937C2.25781 13.7719 2.67031 13.5 3.125 13.5H9.875ZM3.125 10.5C2.67031 10.5 2.25781 10.2281 2.08437 9.80625C1.91094 9.38437 2.00469 8.90156 2.32812 8.57812L4.20312 6.70312L0.767187 3.26719C0.59375 3.09375 0.5 2.86406 0.5 2.625C0.5 2.38594 0.59375 2.15625 0.767187 1.98281L2.48281 0.267187C2.65625 0.09375 2.88594 0 3.125 0C3.36406 0 3.59375 0.09375 3.76719 0.267187L7.20312 3.70312L9.07812 1.82812C9.40156 1.50469 9.88437 1.41094 10.3062 1.58437C10.7281 1.75781 11 2.17031 11 2.625V9.375C11 9.99844 10.4984 10.5 9.875 10.5H3.125Z" fill="#1F2937"/>
</svg>
