<svg width="21" height="24" viewBox="0 0 21 24" fill="none" xmlns="http://www.w3.org/2000/svg">
<path d="M9.87188 0.276563L2.90625 7.94062C2.72344 8.1375 2.625 8.4 2.625 8.66719C2.625 9.26719 3.10781 9.75 3.70781 9.75H4.875L1.43438 13.1906C1.2375 13.3875 1.125 13.6594 1.125 13.9406C1.125 14.5266 1.59844 15 2.18437 15H3.75L0.253125 19.1953C0.0890625 19.3922 0 19.6406 0 19.8984C0 20.5078 0.492188 21 1.10156 21H9V22.5C9 23.3297 9.67031 24 10.5 24C11.3297 24 12 23.3297 12 22.5V21H19.8984C20.5078 21 21 20.5078 21 19.8984C21 19.6406 20.9109 19.3922 20.7469 19.1953L17.25 15H18.8156C19.4016 15 19.875 14.5266 19.875 13.9406C19.875 13.6594 19.7625 13.3875 19.5656 13.1906L16.125 9.75H17.2922C17.8875 9.75 18.375 9.26719 18.375 8.66719C18.375 8.4 18.2766 8.1375 18.0938 7.94062L11.1281 0.276563C10.9688 0.0984375 10.7391 0 10.5 0C10.2609 0 10.0312 0.0984375 9.87188 0.276563Z" fill="#1F2937"/>
</svg>
