<svg width="40" height="40" viewBox="0 0 40 40" fill="none" xmlns="http://www.w3.org/2000/svg">
<path d="M40 40H0V0H40V40Z" stroke="#E5E7EB"/>
<path d="M32 0C36.4183 0 40 3.58172 40 8V32C40 36.4183 36.4183 40 32 40H8C3.58172 40 6.44277e-08 36.4183 0 32V8C0 3.58172 3.58172 6.44256e-08 8 0H32Z" fill="#8EC34D"/>
<path d="M32 0C36.4183 0 40 3.58172 40 8V32C40 36.4183 36.4183 40 32 40H8C3.58172 40 6.44277e-08 36.4183 0 32V8C0 3.58172 3.58172 6.44256e-08 8 0H32Z" stroke="#E5E7EB"/>
<path d="M30.3487 8.76256C30.8221 9.09068 31.0706 9.65787 30.9815 10.2251L27.9815 29.7251C27.9112 30.1797 27.6346 30.5782 27.2315 30.8032C26.8284 31.0282 26.3456 31.0563 25.919 30.8782L20.3127 28.5485L17.1018 32.0219C16.6846 32.4766 16.0284 32.6266 15.4518 32.4016C14.8752 32.1766 14.5002 31.6188 14.5002 31.0001V27.0813C14.5002 26.8938 14.5706 26.7157 14.6971 26.5797L22.5534 18.0063C22.8252 17.711 22.8159 17.2563 22.5346 16.9751C22.2534 16.6938 21.7987 16.6751 21.5034 16.9422L11.969 25.4126L7.82993 23.3407C7.33306 23.0922 7.01431 22.5954 7.00024 22.0422C6.98618 21.4891 7.27681 20.9735 7.75493 20.6969L28.7549 8.69693C29.2565 8.41099 29.8752 8.43912 30.3487 8.76256Z" fill="white"/>
</svg>
