<svg width="19" height="24" viewBox="0 0 19 24" fill="none" xmlns="http://www.w3.org/2000/svg">
<path d="M2.75 0C1.50781 0 0.5 1.00781 0.5 2.25V21.75C0.5 22.9922 1.50781 24 2.75 24H7.25V20.25C7.25 19.0078 8.25781 18 9.5 18C10.7422 18 11.75 19.0078 11.75 20.25V24H16.25C17.4922 24 18.5 22.9922 18.5 21.75V2.25C18.5 1.00781 17.4922 0 16.25 0H2.75ZM3.5 11.25C3.5 10.8375 3.8375 10.5 4.25 10.5H5.75C6.1625 10.5 6.5 10.8375 6.5 11.25V12.75C6.5 13.1625 6.1625 13.5 5.75 13.5H4.25C3.8375 13.5 3.5 13.1625 3.5 12.75V11.25ZM8.75 10.5H10.25C10.6625 10.5 11 10.8375 11 11.25V12.75C11 13.1625 10.6625 13.5 10.25 13.5H8.75C8.3375 13.5 8 13.1625 8 12.75V11.25C8 10.8375 8.3375 10.5 8.75 10.5ZM12.5 11.25C12.5 10.8375 12.8375 10.5 13.25 10.5H14.75C15.1625 10.5 15.5 10.8375 15.5 11.25V12.75C15.5 13.1625 15.1625 13.5 14.75 13.5H13.25C12.8375 13.5 12.5 13.1625 12.5 12.75V11.25ZM4.25 4.5H5.75C6.1625 4.5 6.5 4.8375 6.5 5.25V6.75C6.5 7.1625 6.1625 7.5 5.75 7.5H4.25C3.8375 7.5 3.5 7.1625 3.5 6.75V5.25C3.5 4.8375 3.8375 4.5 4.25 4.5ZM8 5.25C8 4.8375 8.3375 4.5 8.75 4.5H10.25C10.6625 4.5 11 4.8375 11 5.25V6.75C11 7.1625 10.6625 7.5 10.25 7.5H8.75C8.3375 7.5 8 7.1625 8 6.75V5.25ZM13.25 4.5H14.75C15.1625 4.5 15.5 4.8375 15.5 5.25V6.75C15.5 7.1625 15.1625 7.5 14.75 7.5H13.25C12.8375 7.5 12.5 7.1625 12.5 6.75V5.25C12.5 4.8375 12.8375 4.5 13.25 4.5Z" fill="#1F2937"/>
</svg>
